<svg width="304" height="248" viewBox="0 0 304 248" fill="none" xmlns="http://www.w3.org/2000/svg">
<path opacity="0.66" d="M152.016 335.518C268.834 335.518 363.533 240.819 363.533 124.001C363.533 7.18398 268.834 -87.5151 152.016 -87.5151C35.1991 -87.5151 -59.5 7.18398 -59.5 124.001C-59.5 240.819 35.1991 335.518 152.016 335.518Z" stroke="url(#paint0_linear_1063_1389)" stroke-linecap="round"/>
<path opacity="0.7" d="M126.701 330.124C240.539 344.102 344.154 263.148 358.132 149.31C372.11 35.4717 291.156 -68.1437 177.318 -82.1212C63.4796 -96.0988 -40.1358 -15.1457 -54.1134 98.6927C-68.091 212.531 12.8622 316.147 126.701 330.124Z" stroke="url(#paint1_linear_1063_1389)" stroke-linecap="round" stroke-dasharray="89 1000"/>
<path opacity="0.44" d="M106.157 322.602C215.842 347.925 325.286 279.536 350.609 169.852C375.931 60.1677 307.543 -49.277 197.859 -74.5996C88.1744 -99.9222 -21.2702 -31.5336 -46.5928 78.1506C-71.9154 187.835 -3.5268 297.28 106.157 322.602Z" stroke="url(#paint2_linear_1063_1389)" stroke-linecap="round" stroke-dasharray="174 1000"/>
<path opacity="0.19" d="M83.6095 311.92C187.394 349.695 302.151 296.183 339.925 192.398C377.7 88.6133 324.188 -26.1432 220.403 -63.9178C116.619 -101.692 1.86204 -48.1805 -35.9125 55.6042C-73.6871 159.389 -20.1753 274.145 83.6095 311.92Z" stroke="url(#paint3_linear_1063_1389)" stroke-linecap="round" stroke-dasharray="256 1000"/>
<path d="M62.9598 298.758C159.475 347.934 277.582 309.559 326.759 213.044C375.936 116.529 337.56 -1.57775 241.045 -50.7547C144.53 -99.9316 26.4233 -61.5564 -22.7536 34.9588C-71.9306 131.474 -33.5553 249.581 62.9598 298.758Z" stroke="url(#paint4_linear_1063_1389)" stroke-linecap="round" stroke-dasharray="335 1000"/>
<path opacity="0.87" d="M47.28 285.267C136.345 343.106 255.434 317.793 313.273 228.728C371.113 139.664 345.799 20.5745 256.735 -37.2648C167.67 -95.1042 48.5807 -69.791 -9.2586 19.2738C-67.0979 108.339 -41.7847 227.428 47.28 285.267Z" stroke="url(#paint5_linear_1063_1389)" stroke-linecap="round" stroke-dasharray="410 1000"/>
<path opacity="0.09" d="M30.8799 268.356C110.605 335.253 229.466 324.854 296.363 245.129C363.26 165.404 352.861 46.5434 273.136 -20.3538C193.411 -87.251 74.5503 -76.8521 7.65313 2.87293C-59.2441 82.5979 -48.8451 201.459 30.8799 268.356Z" stroke="url(#paint6_linear_1063_1389)" stroke-linecap="round" stroke-dasharray="482 1000"/>
<path opacity="0.55" d="M16.9935 249.895C86.523 324.457 203.332 328.536 277.893 259.006C352.454 189.477 356.533 72.6681 287.004 -1.89313C217.474 -76.4544 100.666 -80.5334 26.1043 -11.0039C-48.4569 58.5255 -52.536 175.334 16.9935 249.895Z" stroke="url(#paint7_linear_1063_1389)" stroke-linecap="round" stroke-dasharray="551 1000"/>
<path opacity="0.94" d="M7.6491 232.779C67.7257 312.504 181.057 328.431 260.781 268.355C340.505 208.278 356.433 94.9471 296.356 15.2228C236.28 -64.5015 122.949 -80.4292 43.2245 -20.3526C-36.4999 39.724 -52.4275 153.055 7.6491 232.779Z" stroke="url(#paint8_linear_1063_1389)" stroke-linecap="round" stroke-dasharray="617 1000"/>
<path opacity="0.68" d="M-1.19764 212.453C47.6532 297.066 155.846 326.056 240.459 277.205C325.071 228.354 354.061 120.161 305.21 35.5488C256.359 -49.0633 148.166 -78.0536 63.5539 -29.2027C-21.0582 19.6481 -50.0485 127.841 -1.19764 212.453Z" stroke="url(#paint9_linear_1063_1389)" stroke-linecap="round" stroke-dasharray="679 1000"/>
<path opacity="0.43" d="M-7.29605 191.621C30.0491 279.601 131.645 320.648 219.625 283.303C307.605 245.958 348.652 144.362 311.307 56.3818C273.962 -31.598 172.366 -72.6454 84.386 -35.3002C-3.59379 2.045 -44.6413 103.641 -7.29605 191.621Z" stroke="url(#paint10_linear_1063_1389)" stroke-linecap="round" stroke-dasharray="738 1000"/>
<path opacity="0.46" d="M-9.80611 173.474C17.5171 262.844 112.116 313.143 201.486 285.82C290.857 258.497 341.156 163.898 313.833 74.5278C286.509 -14.8425 191.91 -65.1416 102.54 -37.8184C13.1697 -10.4951 -37.1294 84.1037 -9.80611 173.474Z" stroke="url(#paint11_linear_1063_1389)" stroke-linecap="round" stroke-dasharray="794 1000"/>
<path opacity="0.95" d="M-10.8459 152.717C5.01335 242.659 90.7825 302.716 180.725 286.856C270.667 270.997 330.723 185.228 314.864 95.2855C299.005 5.34311 213.236 -54.7131 123.293 -38.8538C33.351 -22.9946 -26.7052 62.7746 -10.8459 152.717Z" stroke="url(#paint12_linear_1063_1389)" stroke-linecap="round" stroke-dasharray="847 1000"/>
<path opacity="0.51" d="M-9.29554 132.455C-4.62686 221.538 71.3744 289.97 160.458 285.301C249.542 280.633 317.974 204.631 313.305 115.548C308.636 26.4641 232.635 -41.9677 143.551 -37.2991C54.4676 -32.6304 -13.9642 43.3709 -9.29554 132.455Z" stroke="url(#paint13_linear_1063_1389)" stroke-linecap="round" stroke-dasharray="896 1000"/>
<path opacity="0.41" d="M-5.4529 115.749C-10.0104 202.712 56.7921 276.903 143.755 281.461C230.717 286.018 304.909 219.216 309.467 132.253C314.024 45.2906 247.222 -28.9011 160.259 -33.4587C73.2964 -38.0162 -0.895377 28.7864 -5.4529 115.749Z" stroke="url(#paint14_linear_1063_1389)" stroke-linecap="round" stroke-dasharray="942 1000"/>
<path opacity="0.26" d="M0.520304 97.2889C-14.2325 180.956 41.6338 260.741 125.301 275.494C208.968 290.247 288.754 234.381 303.506 150.714C318.259 67.0462 262.393 -12.7391 178.726 -27.4919C95.0584 -42.2447 15.2731 13.6216 0.520304 97.2889Z" stroke="url(#paint15_linear_1063_1389)" stroke-linecap="round" stroke-dasharray="984 1000"/>
<path opacity="0.85" d="M8.57638 80.1498C-15.642 159.364 28.9413 243.213 108.156 267.432C187.371 291.65 271.22 247.067 295.438 167.852C319.656 88.6375 275.073 4.78854 195.858 -19.4298C116.644 -43.6481 32.7947 0.935159 8.57638 80.1498Z" stroke="url(#paint16_linear_1063_1389)" stroke-linecap="round" stroke-dasharray="1000 1000"/>
<path opacity="0.85" d="M17.4816 66.9003C-14.0544 141.194 20.6079 226.987 94.9019 258.522C169.196 290.058 254.988 255.396 286.524 181.102C318.06 106.808 283.398 21.0159 209.104 -10.5201C134.81 -42.056 49.0175 -7.39374 17.4816 66.9003Z" stroke="url(#paint17_linear_1063_1389)" stroke-linecap="round" stroke-dasharray="1000 1000"/>
<path opacity="0.96" d="M28.7858 52.8548C-10.5073 120.912 12.811 207.937 80.8686 247.23C148.926 286.524 235.951 263.205 275.244 195.148C314.537 127.09 291.219 40.0651 223.161 0.772041C155.104 -38.521 68.0789 -15.2028 28.7858 52.8548Z" stroke="url(#paint18_linear_1063_1389)" stroke-linecap="round" stroke-dasharray="1000 1000"/>
<path opacity="0.29" d="M41.4414 40.6814C-4.57475 101.747 7.62514 188.554 68.6906 234.57C129.756 280.586 216.563 268.386 262.579 207.32C308.595 146.255 296.395 59.4483 235.33 13.4322C174.264 -32.584 87.4575 -20.3841 41.4414 40.6814Z" stroke="url(#paint19_linear_1063_1389)" stroke-linecap="round" stroke-dasharray="1000 1000"/>
<path opacity="0.86" d="M53.5619 32.2033C2.86336 86.5709 5.83766 171.744 60.2052 222.442C114.573 273.141 199.746 270.167 250.444 215.799C301.143 161.432 298.169 76.2586 243.801 25.56C189.433 -25.1386 104.261 -22.1643 53.5619 32.2033Z" stroke="url(#paint20_linear_1063_1389)" stroke-linecap="round" stroke-dasharray="1000 1000"/>
<path opacity="0.57" d="M67.9658 23.8363C12.6464 70.2548 5.43084 152.73 51.8493 208.049C98.2678 263.368 180.743 270.584 236.062 224.166C291.381 177.747 298.597 95.2722 252.178 39.9528C205.76 -15.3665 123.285 -22.5821 67.9658 23.8363Z" stroke="url(#paint21_linear_1063_1389)" stroke-linecap="round" stroke-dasharray="1000 1000"/>
<path opacity="0.79" d="M82.8869 17.5654C24.1042 55.7393 7.39745 134.338 45.5714 193.121C83.7453 251.904 162.344 268.61 221.127 230.436C279.91 192.263 296.616 113.664 258.442 54.8809C220.269 -3.90185 141.67 -20.6086 82.8869 17.5654Z" stroke="url(#paint22_linear_1063_1389)" stroke-linecap="round" stroke-dasharray="1000 1000"/>
<path opacity="0.48" d="M96.1405 14.3501C35.582 45.2062 11.5034 119.312 42.3595 179.871C73.2156 240.429 147.322 264.508 207.88 233.652C268.439 202.796 292.517 128.69 261.661 68.1311C230.805 7.57256 156.699 -16.506 96.1405 14.3501Z" stroke="url(#paint23_linear_1063_1389)" stroke-linecap="round" stroke-dasharray="1000 1000"/>
<path opacity="0.66" d="M111.242 11.9725C49.3699 34.492 17.4686 102.905 39.9881 164.776C62.5075 226.648 130.92 258.549 192.792 236.03C254.663 213.51 286.565 145.098 264.045 83.2261C241.526 21.3544 173.113 -10.5469 111.242 11.9725Z" stroke="url(#paint24_linear_1063_1389)" stroke-linecap="round" stroke-dasharray="1000 1000"/>
<path opacity="0.49" d="M126.045 11.5854C63.9598 25.9189 25.2493 87.8687 39.5828 149.954C53.9164 212.04 115.866 250.75 177.952 236.417C240.037 222.083 278.748 160.133 264.414 98.0478C250.08 35.9624 188.131 -2.74816 126.045 11.5854Z" stroke="url(#paint25_linear_1063_1389)" stroke-linecap="round" stroke-dasharray="1000 1000"/>
<path d="M138.418 13.3056C77.2825 20.8121 33.8076 76.4574 41.3141 137.593C48.8206 198.728 104.466 242.203 165.601 234.697C226.737 227.19 270.212 171.545 262.705 110.409C255.199 49.274 199.553 5.79915 138.418 13.3056Z" stroke="url(#paint26_linear_1063_1389)" stroke-linecap="round" stroke-dasharray="1000 1000"/>
<path opacity="0.73" d="M152.006 16.3205C92.5358 16.3205 44.3253 64.5309 44.3253 124.002C44.3253 183.472 92.5358 231.683 152.006 231.683C211.477 231.683 259.688 183.472 259.688 124.002C259.688 64.5309 211.477 16.3205 152.006 16.3205Z" stroke="url(#paint27_linear_1063_1389)" stroke-linecap="round" stroke-dasharray="1000 1000"/>
<path opacity="0.64" d="M164.661 20.94C107.742 13.9512 55.9345 54.4278 48.9457 111.347C41.9569 168.266 82.4335 220.074 139.353 227.063C196.272 234.051 248.08 193.575 255.068 136.656C262.057 79.7365 221.581 27.9288 164.661 20.94Z" stroke="url(#paint28_linear_1063_1389)" stroke-linecap="round" stroke-dasharray="1000 1000"/>
<path opacity="0.51" d="M174.504 26.5742C120.697 14.1518 67.0068 47.7009 54.5844 101.508C42.162 155.316 75.7111 209.005 129.518 221.428C183.326 233.85 237.016 200.301 249.438 146.494C261.86 92.6865 228.311 38.9966 174.504 26.5742Z" stroke="url(#paint29_linear_1063_1389)" stroke-linecap="round" stroke-dasharray="1000 1000"/>
<path opacity="0.89" d="M184.889 33.6556C134.993 15.4947 79.8215 41.2216 61.6606 91.1181C43.4998 141.015 69.2266 196.186 119.123 214.347C169.02 232.508 224.191 206.781 242.352 156.884C260.513 106.988 234.786 51.8164 184.889 33.6556Z" stroke="url(#paint30_linear_1063_1389)" stroke-linecap="round" stroke-dasharray="1000 1000"/>
<path opacity="0.12" d="M193.91 41.763C148.492 18.621 92.9119 36.6799 69.7698 82.0988C46.6278 127.518 64.6867 183.097 110.106 206.239C155.524 229.381 211.104 211.323 234.246 165.904C257.388 120.485 239.329 64.9051 193.91 41.763Z" stroke="url(#paint31_linear_1063_1389)" stroke-linecap="round" stroke-dasharray="1000 1000"/>
<path opacity="0.42" d="M200.182 49.8187C159.213 23.2126 104.432 34.8566 77.8255 75.8264C51.2194 116.796 62.8635 171.577 103.833 198.183C144.803 224.789 199.584 213.145 226.19 172.176C252.796 131.206 241.152 76.4247 200.182 49.8187Z" stroke="url(#paint32_linear_1063_1389)" stroke-linecap="round" stroke-dasharray="1000 1000"/>
<path opacity="0.29" d="M206.385 59.1887C170.591 29.1532 117.224 33.8221 87.189 69.617C57.1535 105.412 61.8224 158.778 97.6173 188.813C133.412 218.849 186.778 214.18 216.814 178.385C246.849 142.59 242.18 89.2242 206.385 59.1887Z" stroke="url(#paint33_linear_1063_1389)" stroke-linecap="round" stroke-dasharray="1000 1000"/>
<path opacity="0.77" d="M211.082 68.9223C180.663 36.3018 129.559 34.5172 96.9385 64.9364C64.318 95.3555 62.5334 146.459 92.9525 179.08C123.372 211.7 174.475 213.485 207.096 183.066C239.717 152.647 241.501 101.543 211.082 68.9223Z" stroke="url(#paint34_linear_1063_1389)" stroke-linecap="round" stroke-dasharray="1000 1000"/>
<path opacity="0.09" d="M213.441 77.7124C187.876 43.7872 139.65 37.0095 105.725 62.574C71.7996 88.1385 65.0219 136.364 90.5864 170.29C116.151 204.215 164.377 210.993 198.302 185.428C232.227 159.864 239.005 111.638 213.441 77.7124Z" stroke="url(#paint35_linear_1063_1389)" stroke-linecap="round" stroke-dasharray="1000 1000"/>
<path opacity="0.45" d="M215.291 87.4663C195.113 52.5178 150.425 40.5435 115.476 60.7211C80.5277 80.8986 68.5535 125.587 88.731 160.536C108.909 195.484 153.597 207.458 188.545 187.281C223.494 167.103 235.468 122.415 215.291 87.4663Z" stroke="url(#paint36_linear_1063_1389)" stroke-linecap="round" stroke-dasharray="1000 1000"/>
<path opacity="0.86" d="M215.737 96.9533C200.799 61.7614 160.161 45.3424 124.969 60.2805C89.7768 75.2186 73.3579 115.857 88.296 151.049C103.234 186.241 143.872 202.66 179.064 187.722C214.256 172.784 230.675 132.145 215.737 96.9533Z" stroke="url(#paint37_linear_1063_1389)" stroke-linecap="round" stroke-dasharray="1000 1000"/>
<path opacity="0.99" d="M214.537 104.886C203.98 70.3569 167.431 50.9232 132.901 61.4799C98.3718 72.0366 78.938 108.586 89.4948 143.116C100.051 177.645 136.601 197.079 171.13 186.522C205.66 175.965 225.094 139.416 214.537 104.886Z" stroke="url(#paint38_linear_1063_1389)" stroke-linecap="round" stroke-dasharray="1000 1000"/>
<path opacity="0.69" d="M212.611 113.316C206.71 79.8492 174.796 57.5027 141.329 63.4038C107.862 69.3049 85.5155 101.219 91.4166 134.686C97.3178 168.153 129.232 190.499 162.699 184.598C196.166 178.697 218.512 146.783 212.611 113.316Z" stroke="url(#paint39_linear_1063_1389)" stroke-linecap="round" stroke-dasharray="1000 1000"/>
<path opacity="0.74" d="M209.617 120.982C207.95 89.1662 180.807 64.7263 148.991 66.3937C117.175 68.0611 92.7354 95.2044 94.4028 127.02C96.0702 158.836 123.214 183.276 155.029 181.608C186.845 179.941 211.285 152.797 209.617 120.982Z" stroke="url(#paint40_linear_1063_1389)" stroke-linecap="round" stroke-dasharray="984 1000"/>
<path opacity="0.13" d="M205.781 126.819C207.337 97.1242 184.527 71.7905 154.832 70.2342C125.137 68.678 99.8037 91.4886 98.2475 121.183C96.6913 150.878 119.502 176.212 149.196 177.768C178.891 179.324 204.225 156.513 205.781 126.819Z" stroke="url(#paint41_linear_1063_1389)" stroke-linecap="round" stroke-dasharray="942 1000"/>
<path opacity="0.83" d="M201.246 132.682C206.04 105.491 187.884 79.5604 160.692 74.7657C133.5 69.971 107.57 88.1276 102.775 115.319C97.9806 142.511 116.137 168.442 143.329 173.236C170.521 178.031 196.451 159.874 201.246 132.682Z" stroke="url(#paint42_linear_1063_1389)" stroke-linecap="round" stroke-dasharray="896 1000"/>
<path opacity="0.3" d="M196.141 137.494C203.592 113.12 189.874 87.3205 165.501 79.8687C141.127 72.4169 115.327 86.1349 107.875 110.509C100.424 134.882 114.142 160.682 138.515 168.134C162.889 175.586 188.689 161.868 196.141 137.494Z" stroke="url(#paint43_linear_1063_1389)" stroke-linecap="round" stroke-dasharray="847 1000"/>
<path opacity="0.45" d="M190.949 140.53C200.078 119.024 190.044 94.1896 168.538 85.0608C147.032 75.932 122.197 85.9658 113.068 107.472C103.939 128.978 113.973 153.813 135.479 162.942C156.986 172.07 181.82 162.037 190.949 140.53Z" stroke="url(#paint44_linear_1063_1389)" stroke-linecap="round" stroke-dasharray="794 1000"/>
<path opacity="0.1" d="M185.308 143.23C195.928 124.836 189.625 101.316 171.231 90.696C152.838 80.0763 129.317 86.3785 118.698 104.772C108.078 123.166 114.38 146.687 132.774 157.306C151.168 167.926 174.688 161.624 185.308 143.23Z" stroke="url(#paint45_linear_1063_1389)" stroke-linecap="round" stroke-dasharray="738 942"/>
<path opacity="0.31" d="M179.653 144.831C191.157 129.564 188.107 107.863 172.841 96.3587C157.575 84.8547 135.873 87.9047 124.369 103.171C112.865 118.437 115.915 140.139 131.181 151.643C146.448 163.147 168.149 160.097 179.653 144.831Z" stroke="url(#paint46_linear_1063_1389)" stroke-linecap="round" stroke-dasharray="679 848"/>
<path opacity="0.9" d="M174.515 144.983C186.104 132.557 185.424 113.088 172.997 101.5C160.57 89.912 141.102 90.5918 129.514 103.019C117.925 115.446 118.605 134.914 131.032 146.502C143.459 158.09 162.927 157.41 174.515 144.983Z" stroke="url(#paint47_linear_1063_1389)" stroke-linecap="round" stroke-dasharray="617 754"/>
<path opacity="0.72" d="M169.316 144.623C180.705 135.067 182.191 118.086 172.634 106.697C163.077 95.3079 146.097 93.8223 134.708 103.379C123.319 112.936 121.833 129.916 131.39 141.305C140.947 152.695 157.927 154.18 169.316 144.623Z" stroke="url(#paint48_linear_1063_1389)" stroke-linecap="round" stroke-dasharray="551 660"/>
<path opacity="0.47" d="M164.565 143.353C175.252 136.412 178.29 122.121 171.349 111.434C164.409 100.746 150.118 97.7083 139.43 104.649C128.742 111.59 125.705 125.88 132.645 136.568C139.586 147.256 153.877 150.294 164.565 143.353Z" stroke="url(#paint49_linear_1063_1389)" stroke-linecap="round" stroke-dasharray="482 565"/>
<path opacity="0.26" d="M160.741 141.134C170.203 136.313 173.965 124.734 169.144 115.271C164.323 105.809 152.744 102.047 143.281 106.868C133.819 111.689 130.057 123.268 134.878 132.731C139.699 142.193 151.278 145.955 160.741 141.134Z" stroke="url(#paint50_linear_1063_1389)" stroke-linecap="round" stroke-dasharray="410 471"/>
<path opacity="0.46" d="M157.275 138.456C165.258 135.55 169.375 126.723 166.469 118.74C163.563 110.756 154.736 106.64 146.752 109.546C138.769 112.451 134.652 121.279 137.558 129.262C140.464 137.246 149.291 141.362 157.275 138.456Z" stroke="url(#paint51_linear_1063_1389)" stroke-linecap="round" stroke-dasharray="335 377"/>
<path opacity="0.27" d="M154.604 135.243C160.813 133.809 164.684 127.614 163.25 121.406C161.817 115.197 155.622 111.326 149.413 112.759C143.205 114.193 139.334 120.388 140.767 126.596C142.201 132.805 148.396 136.676 154.604 135.243Z" stroke="url(#paint52_linear_1063_1389)" stroke-linecap="round" stroke-dasharray="256 283"/>
<path opacity="0.41" d="M152.946 131.635C157.163 131.117 160.161 127.28 159.643 123.064C159.126 118.847 155.288 115.849 151.072 116.367C146.855 116.885 143.857 120.722 144.375 124.938C144.893 129.155 148.73 132.153 152.946 131.635Z" stroke="url(#paint53_linear_1063_1389)" stroke-linecap="round" stroke-dasharray="174 188"/>
<path opacity="0.31" d="M152.01 127.847C154.134 127.847 155.856 126.125 155.856 124.001C155.856 121.877 154.134 120.156 152.01 120.156C149.886 120.156 148.164 121.877 148.164 124.001C148.164 126.125 149.886 127.847 152.01 127.847Z" stroke="url(#paint54_linear_1063_1389)" stroke-linecap="round" stroke-dasharray="89 94"/>
<defs>
<linearGradient id="paint0_linear_1063_1389" x1="152.016" y1="-87.5151" x2="152.016" y2="335.518" gradientUnits="userSpaceOnUse">
<stop stop-color="#1FDBCF"/>
<stop offset="1" stop-color="#F42A8B"/>
</linearGradient>
<linearGradient id="paint1_linear_1063_1389" x1="177.318" y1="-82.1212" x2="126.701" y2="330.124" gradientUnits="userSpaceOnUse">
<stop stop-color="#1FDBCF"/>
<stop offset="1" stop-color="#F42A8B"/>
</linearGradient>
<linearGradient id="paint2_linear_1063_1389" x1="197.859" y1="-74.5996" x2="106.157" y2="322.602" gradientUnits="userSpaceOnUse">
<stop stop-color="#1FDBCF"/>
<stop offset="1" stop-color="#F42A8B"/>
</linearGradient>
<linearGradient id="paint3_linear_1063_1389" x1="220.403" y1="-63.9178" x2="83.6095" y2="311.92" gradientUnits="userSpaceOnUse">
<stop stop-color="#1FDBCF"/>
<stop offset="1" stop-color="#F42A8B"/>
</linearGradient>
<linearGradient id="paint4_linear_1063_1389" x1="241.045" y1="-50.7547" x2="62.9598" y2="298.758" gradientUnits="userSpaceOnUse">
<stop stop-color="#1FDBCF"/>
<stop offset="1" stop-color="#F42A8B"/>
</linearGradient>
<linearGradient id="paint5_linear_1063_1389" x1="256.735" y1="-37.2648" x2="47.28" y2="285.267" gradientUnits="userSpaceOnUse">
<stop stop-color="#1FDBCF"/>
<stop offset="1" stop-color="#F42A8B"/>
</linearGradient>
<linearGradient id="paint6_linear_1063_1389" x1="273.136" y1="-20.3538" x2="30.8799" y2="268.356" gradientUnits="userSpaceOnUse">
<stop stop-color="#1FDBCF"/>
<stop offset="1" stop-color="#F42A8B"/>
</linearGradient>
<linearGradient id="paint7_linear_1063_1389" x1="287.004" y1="-1.89313" x2="16.9935" y2="249.895" gradientUnits="userSpaceOnUse">
<stop stop-color="#1FDBCF"/>
<stop offset="1" stop-color="#F42A8B"/>
</linearGradient>
<linearGradient id="paint8_linear_1063_1389" x1="296.356" y1="15.2228" x2="7.6491" y2="232.779" gradientUnits="userSpaceOnUse">
<stop stop-color="#1FDBCF"/>
<stop offset="1" stop-color="#F42A8B"/>
</linearGradient>
<linearGradient id="paint9_linear_1063_1389" x1="305.21" y1="35.5488" x2="-1.19764" y2="212.453" gradientUnits="userSpaceOnUse">
<stop stop-color="#1FDBCF"/>
<stop offset="1" stop-color="#F42A8B"/>
</linearGradient>
<linearGradient id="paint10_linear_1063_1389" x1="311.307" y1="56.3818" x2="-7.29605" y2="191.621" gradientUnits="userSpaceOnUse">
<stop stop-color="#1FDBCF"/>
<stop offset="1" stop-color="#F42A8B"/>
</linearGradient>
<linearGradient id="paint11_linear_1063_1389" x1="313.833" y1="74.5278" x2="-9.80611" y2="173.474" gradientUnits="userSpaceOnUse">
<stop stop-color="#1FDBCF"/>
<stop offset="1" stop-color="#F42A8B"/>
</linearGradient>
<linearGradient id="paint12_linear_1063_1389" x1="314.864" y1="95.2855" x2="-10.8459" y2="152.717" gradientUnits="userSpaceOnUse">
<stop stop-color="#1FDBCF"/>
<stop offset="1" stop-color="#F42A8B"/>
</linearGradient>
<linearGradient id="paint13_linear_1063_1389" x1="313.305" y1="115.548" x2="-9.29554" y2="132.455" gradientUnits="userSpaceOnUse">
<stop stop-color="#1FDBCF"/>
<stop offset="1" stop-color="#F42A8B"/>
</linearGradient>
<linearGradient id="paint14_linear_1063_1389" x1="309.467" y1="132.253" x2="-5.4529" y2="115.749" gradientUnits="userSpaceOnUse">
<stop stop-color="#1FDBCF"/>
<stop offset="1" stop-color="#F42A8B"/>
</linearGradient>
<linearGradient id="paint15_linear_1063_1389" x1="303.506" y1="150.714" x2="0.520304" y2="97.2889" gradientUnits="userSpaceOnUse">
<stop stop-color="#1FDBCF"/>
<stop offset="1" stop-color="#F42A8B"/>
</linearGradient>
<linearGradient id="paint16_linear_1063_1389" x1="295.438" y1="167.852" x2="8.57638" y2="80.1498" gradientUnits="userSpaceOnUse">
<stop stop-color="#1FDBCF"/>
<stop offset="1" stop-color="#F42A8B"/>
</linearGradient>
<linearGradient id="paint17_linear_1063_1389" x1="286.524" y1="181.102" x2="17.4816" y2="66.9003" gradientUnits="userSpaceOnUse">
<stop stop-color="#1FDBCF"/>
<stop offset="1" stop-color="#F42A8B"/>
</linearGradient>
<linearGradient id="paint18_linear_1063_1389" x1="275.244" y1="195.148" x2="28.7858" y2="52.8548" gradientUnits="userSpaceOnUse">
<stop stop-color="#1FDBCF"/>
<stop offset="1" stop-color="#F42A8B"/>
</linearGradient>
<linearGradient id="paint19_linear_1063_1389" x1="262.579" y1="207.32" x2="41.4414" y2="40.6814" gradientUnits="userSpaceOnUse">
<stop stop-color="#1FDBCF"/>
<stop offset="1" stop-color="#F42A8B"/>
</linearGradient>
<linearGradient id="paint20_linear_1063_1389" x1="250.444" y1="215.799" x2="53.5619" y2="32.2033" gradientUnits="userSpaceOnUse">
<stop stop-color="#1FDBCF"/>
<stop offset="1" stop-color="#F42A8B"/>
</linearGradient>
<linearGradient id="paint21_linear_1063_1389" x1="236.062" y1="224.166" x2="67.9658" y2="23.8363" gradientUnits="userSpaceOnUse">
<stop stop-color="#1FDBCF"/>
<stop offset="1" stop-color="#F42A8B"/>
</linearGradient>
<linearGradient id="paint22_linear_1063_1389" x1="221.127" y1="230.436" x2="82.8869" y2="17.5654" gradientUnits="userSpaceOnUse">
<stop stop-color="#1FDBCF"/>
<stop offset="1" stop-color="#F42A8B"/>
</linearGradient>
<linearGradient id="paint23_linear_1063_1389" x1="207.88" y1="233.652" x2="96.1405" y2="14.3501" gradientUnits="userSpaceOnUse">
<stop stop-color="#1FDBCF"/>
<stop offset="1" stop-color="#F42A8B"/>
</linearGradient>
<linearGradient id="paint24_linear_1063_1389" x1="192.792" y1="236.03" x2="111.242" y2="11.9725" gradientUnits="userSpaceOnUse">
<stop stop-color="#1FDBCF"/>
<stop offset="1" stop-color="#F42A8B"/>
</linearGradient>
<linearGradient id="paint25_linear_1063_1389" x1="177.952" y1="236.417" x2="126.045" y2="11.5854" gradientUnits="userSpaceOnUse">
<stop stop-color="#1FDBCF"/>
<stop offset="1" stop-color="#F42A8B"/>
</linearGradient>
<linearGradient id="paint26_linear_1063_1389" x1="165.601" y1="234.697" x2="138.418" y2="13.3056" gradientUnits="userSpaceOnUse">
<stop stop-color="#1FDBCF"/>
<stop offset="1" stop-color="#F42A8B"/>
</linearGradient>
<linearGradient id="paint27_linear_1063_1389" x1="152.006" y1="231.683" x2="152.006" y2="16.3205" gradientUnits="userSpaceOnUse">
<stop stop-color="#1FDBCF"/>
<stop offset="1" stop-color="#F42A8B"/>
</linearGradient>
<linearGradient id="paint28_linear_1063_1389" x1="139.353" y1="227.063" x2="164.661" y2="20.94" gradientUnits="userSpaceOnUse">
<stop stop-color="#1FDBCF"/>
<stop offset="1" stop-color="#F42A8B"/>
</linearGradient>
<linearGradient id="paint29_linear_1063_1389" x1="129.518" y1="221.428" x2="174.504" y2="26.5742" gradientUnits="userSpaceOnUse">
<stop stop-color="#1FDBCF"/>
<stop offset="1" stop-color="#F42A8B"/>
</linearGradient>
<linearGradient id="paint30_linear_1063_1389" x1="119.123" y1="214.347" x2="184.889" y2="33.6556" gradientUnits="userSpaceOnUse">
<stop stop-color="#1FDBCF"/>
<stop offset="1" stop-color="#F42A8B"/>
</linearGradient>
<linearGradient id="paint31_linear_1063_1389" x1="110.106" y1="206.239" x2="193.91" y2="41.763" gradientUnits="userSpaceOnUse">
<stop stop-color="#1FDBCF"/>
<stop offset="1" stop-color="#F42A8B"/>
</linearGradient>
<linearGradient id="paint32_linear_1063_1389" x1="103.833" y1="198.183" x2="200.182" y2="49.8187" gradientUnits="userSpaceOnUse">
<stop stop-color="#1FDBCF"/>
<stop offset="1" stop-color="#F42A8B"/>
</linearGradient>
<linearGradient id="paint33_linear_1063_1389" x1="97.6173" y1="188.813" x2="206.385" y2="59.1887" gradientUnits="userSpaceOnUse">
<stop stop-color="#1FDBCF"/>
<stop offset="1" stop-color="#F42A8B"/>
</linearGradient>
<linearGradient id="paint34_linear_1063_1389" x1="92.9525" y1="179.08" x2="211.082" y2="68.9223" gradientUnits="userSpaceOnUse">
<stop stop-color="#1FDBCF"/>
<stop offset="1" stop-color="#F42A8B"/>
</linearGradient>
<linearGradient id="paint35_linear_1063_1389" x1="90.5864" y1="170.29" x2="213.441" y2="77.7124" gradientUnits="userSpaceOnUse">
<stop stop-color="#1FDBCF"/>
<stop offset="1" stop-color="#F42A8B"/>
</linearGradient>
<linearGradient id="paint36_linear_1063_1389" x1="88.731" y1="160.536" x2="215.291" y2="87.4663" gradientUnits="userSpaceOnUse">
<stop stop-color="#1FDBCF"/>
<stop offset="1" stop-color="#F42A8B"/>
</linearGradient>
<linearGradient id="paint37_linear_1063_1389" x1="88.296" y1="151.049" x2="215.737" y2="96.9533" gradientUnits="userSpaceOnUse">
<stop stop-color="#1FDBCF"/>
<stop offset="1" stop-color="#F42A8B"/>
</linearGradient>
<linearGradient id="paint38_linear_1063_1389" x1="89.4948" y1="143.116" x2="214.537" y2="104.886" gradientUnits="userSpaceOnUse">
<stop stop-color="#1FDBCF"/>
<stop offset="1" stop-color="#F42A8B"/>
</linearGradient>
<linearGradient id="paint39_linear_1063_1389" x1="91.4166" y1="134.686" x2="212.611" y2="113.316" gradientUnits="userSpaceOnUse">
<stop stop-color="#1FDBCF"/>
<stop offset="1" stop-color="#F42A8B"/>
</linearGradient>
<linearGradient id="paint40_linear_1063_1389" x1="94.4028" y1="127.02" x2="209.617" y2="120.982" gradientUnits="userSpaceOnUse">
<stop stop-color="#1FDBCF"/>
<stop offset="1" stop-color="#F42A8B"/>
</linearGradient>
<linearGradient id="paint41_linear_1063_1389" x1="98.2475" y1="121.183" x2="205.781" y2="126.819" gradientUnits="userSpaceOnUse">
<stop stop-color="#1FDBCF"/>
<stop offset="1" stop-color="#F42A8B"/>
</linearGradient>
<linearGradient id="paint42_linear_1063_1389" x1="102.775" y1="115.319" x2="201.246" y2="132.682" gradientUnits="userSpaceOnUse">
<stop stop-color="#1FDBCF"/>
<stop offset="1" stop-color="#F42A8B"/>
</linearGradient>
<linearGradient id="paint43_linear_1063_1389" x1="107.875" y1="110.509" x2="196.141" y2="137.494" gradientUnits="userSpaceOnUse">
<stop stop-color="#1FDBCF"/>
<stop offset="1" stop-color="#F42A8B"/>
</linearGradient>
<linearGradient id="paint44_linear_1063_1389" x1="113.068" y1="107.472" x2="190.949" y2="140.53" gradientUnits="userSpaceOnUse">
<stop stop-color="#1FDBCF"/>
<stop offset="1" stop-color="#F42A8B"/>
</linearGradient>
<linearGradient id="paint45_linear_1063_1389" x1="118.698" y1="104.772" x2="185.308" y2="143.23" gradientUnits="userSpaceOnUse">
<stop stop-color="#1FDBCF"/>
<stop offset="1" stop-color="#F42A8B"/>
</linearGradient>
<linearGradient id="paint46_linear_1063_1389" x1="124.369" y1="103.171" x2="179.653" y2="144.831" gradientUnits="userSpaceOnUse">
<stop stop-color="#1FDBCF"/>
<stop offset="1" stop-color="#F42A8B"/>
</linearGradient>
<linearGradient id="paint47_linear_1063_1389" x1="129.514" y1="103.019" x2="174.515" y2="144.983" gradientUnits="userSpaceOnUse">
<stop stop-color="#1FDBCF"/>
<stop offset="1" stop-color="#F42A8B"/>
</linearGradient>
<linearGradient id="paint48_linear_1063_1389" x1="134.708" y1="103.379" x2="169.316" y2="144.623" gradientUnits="userSpaceOnUse">
<stop stop-color="#1FDBCF"/>
<stop offset="1" stop-color="#F42A8B"/>
</linearGradient>
<linearGradient id="paint49_linear_1063_1389" x1="139.43" y1="104.649" x2="164.565" y2="143.353" gradientUnits="userSpaceOnUse">
<stop stop-color="#1FDBCF"/>
<stop offset="1" stop-color="#F42A8B"/>
</linearGradient>
<linearGradient id="paint50_linear_1063_1389" x1="143.281" y1="106.868" x2="160.741" y2="141.134" gradientUnits="userSpaceOnUse">
<stop stop-color="#1FDBCF"/>
<stop offset="1" stop-color="#F42A8B"/>
</linearGradient>
<linearGradient id="paint51_linear_1063_1389" x1="146.752" y1="109.546" x2="157.275" y2="138.456" gradientUnits="userSpaceOnUse">
<stop stop-color="#1FDBCF"/>
<stop offset="1" stop-color="#F42A8B"/>
</linearGradient>
<linearGradient id="paint52_linear_1063_1389" x1="149.413" y1="112.759" x2="154.604" y2="135.243" gradientUnits="userSpaceOnUse">
<stop stop-color="#1FDBCF"/>
<stop offset="1" stop-color="#F42A8B"/>
</linearGradient>
<linearGradient id="paint53_linear_1063_1389" x1="151.072" y1="116.367" x2="152.946" y2="131.635" gradientUnits="userSpaceOnUse">
<stop stop-color="#1FDBCF"/>
<stop offset="1" stop-color="#F42A8B"/>
</linearGradient>
<linearGradient id="paint54_linear_1063_1389" x1="152.01" y1="120.156" x2="152.01" y2="127.847" gradientUnits="userSpaceOnUse">
<stop stop-color="#1FDBCF"/>
<stop offset="1" stop-color="#F42A8B"/>
</linearGradient>
</defs>
</svg>
