<svg width="42" height="13" viewBox="0 0 42 13" fill="none" xmlns="http://www.w3.org/2000/svg">
<path d="M12.3828 0.116211L7.83008 12.5H5.20215L0.623047 0.116211H3.33008L5.87891 8.07031C5.96094 8.32812 6.05469 8.65332 6.16016 9.0459C6.27148 9.43262 6.39453 9.88672 6.5293 10.4082C6.72266 9.67578 6.86035 9.14551 6.94238 8.81738C7.03027 8.48926 7.10352 8.24023 7.16211 8.07031L9.70215 0.116211H12.3828ZM16.3027 0.116211V12.5H13.71V0.116211H16.3027ZM29.6973 8.9668C29.6973 10.0918 29.2754 10.9619 28.4316 11.5771C27.5879 12.1924 26.416 12.5 24.916 12.5H18.7197V0.116211H24.3887C25.9004 0.116211 27.043 0.379883 27.8164 0.907227C28.5957 1.42871 28.9854 2.20215 28.9854 3.22754C28.9854 3.93066 28.7891 4.52539 28.3965 5.01172C28.0098 5.49219 27.418 5.81738 26.6211 5.9873C27.623 6.10449 28.3848 6.4209 28.9062 6.93652C29.4336 7.44629 29.6973 8.12305 29.6973 8.9668ZM26.375 3.5791C26.375 3.02246 26.1963 2.62695 25.8389 2.39258C25.4873 2.1582 24.9629 2.04102 24.2656 2.04102H21.3125V5.1084H24.2832C25.0156 5.1084 25.5459 4.98242 25.874 4.73047C26.208 4.47266 26.375 4.08887 26.375 3.5791ZM27.0957 8.76465C27.0957 7.60449 26.2637 7.02441 24.5996 7.02441H21.3125V10.5752H24.6963C25.5283 10.5752 26.1348 10.4258 26.5156 10.127C26.9023 9.82227 27.0957 9.36816 27.0957 8.76465ZM41.8262 10.4961V12.5H31.7275V0.116211H41.4658V2.12012H34.3203V5.23145H40.9297V7.23535H34.3203V10.4961H41.8262Z" fill="url(#paint0_linear_1054_1169)"/>
<defs>
<linearGradient id="paint0_linear_1054_1169" x1="0.5" y1="-4.5" x2="43.5" y2="16.5" gradientUnits="userSpaceOnUse">
<stop stop-color="#CB14E8"/>
<stop offset="0.5" stop-color="#2514E8"/>
<stop offset="1" stop-color="#00FFA3"/>
</linearGradient>
</defs>
</svg>
